<?xml version="1.0" encoding="UTF-8" standalone="no"?>
<!-- Generator: Adobe Illustrator 15.0.0, SVG Export Plug-In . SVG Version: 6.00 Build 0)  -->

<svg
   xmlns:dc="http://purl.org/dc/elements/1.1/"
   xmlns:cc="http://creativecommons.org/ns#"
   xmlns:rdf="http://www.w3.org/1999/02/22-rdf-syntax-ns#"
   xmlns:svg="http://www.w3.org/2000/svg"
   xmlns="http://www.w3.org/2000/svg"
   xmlns:sodipodi="http://sodipodi.sourceforge.net/DTD/sodipodi-0.dtd"
   xmlns:inkscape="http://www.inkscape.org/namespaces/inkscape"
   version="1.1"
   id="m-pin_2"
   x="0px"
   y="0px"
   width="351.629"
   height="103.209"
   viewBox="0 0 351.62901 103.209"
   xml:space="preserve"
   inkscape:version="0.91 r13725"
   sodipodi:docname="product logos_m-pin-2- cropped.svg"><metadata
     id="metadata3488"><rdf:RDF><cc:Work
         rdf:about=""><dc:format>image/svg+xml</dc:format><dc:type
           rdf:resource="http://purl.org/dc/dcmitype/StillImage" /><dc:title></dc:title></cc:Work></rdf:RDF></metadata><defs
     id="defs3486" /><sodipodi:namedview
     pagecolor="#ffffff"
     bordercolor="#666666"
     borderopacity="1"
     objecttolerance="10"
     gridtolerance="10"
     guidetolerance="10"
     inkscape:pageopacity="0"
     inkscape:pageshadow="2"
     inkscape:window-width="1366"
     inkscape:window-height="745"
     id="namedview3484"
     showgrid="false"
     fit-margin-top="0"
     fit-margin-left="0"
     fit-margin-right="0"
     fit-margin-bottom="0"
     inkscape:zoom="1.7553644"
     inkscape:cx="186.44349"
     inkscape:cy="45.257503"
     inkscape:window-x="1912"
     inkscape:window-y="-8"
     inkscape:window-maximized="1"
     inkscape:current-layer="m-pin_2" /><g
     id="g3433"
     transform="translate(-33.642,-106.117)"><path
       style="fill:#4c565c"
       d="m 190.918,165.332 c 0.418,0.996 0.828,2 1.232,3.008 0.404,-1.039 0.822,-2.061 1.256,-3.07 0.433,-1.012 0.893,-1.977 1.383,-2.902 l 18.517,-34.65 c 0.23,-0.432 0.47,-0.777 0.715,-1.039 0.243,-0.26 0.519,-0.445 0.822,-0.562 0.302,-0.115 0.642,-0.188 1.017,-0.217 0.374,-0.027 0.822,-0.043 1.341,-0.043 l 8.782,0 0,62.559 -10.254,0 0,-40.408 c 0,-0.748 0.022,-1.572 0.064,-2.465 0.045,-0.895 0.109,-1.803 0.195,-2.725 l -18.906,35.473 c -0.432,0.809 -0.994,1.438 -1.686,1.883 -0.693,0.447 -1.501,0.67 -2.424,0.67 l -1.6,0 c -0.925,0 -1.73,-0.223 -2.424,-0.67 -0.691,-0.445 -1.254,-1.074 -1.687,-1.883 l -19.165,-35.605 c 0.115,0.953 0.195,1.883 0.237,2.793 0.044,0.908 0.064,1.75 0.064,2.529 l 0,40.408 -10.252,0 0,-62.559 8.782,0 c 0.52,0 0.965,0.016 1.341,0.043 0.374,0.029 0.714,0.102 1.017,0.217 0.303,0.117 0.584,0.303 0.844,0.562 0.26,0.262 0.504,0.607 0.734,1.039 l 18.69,34.74 c 0.493,0.923 0.947,1.882 1.365,2.874 z"
       id="path3435"
       inkscape:connector-curvature="0" /><path
       style="fill:#4c565c"
       d="m 236.624,157.826 22.409,0 0,8.912 -22.409,0 0,-8.912 z"
       id="path3437"
       inkscape:connector-curvature="0" /><path
       style="fill:#4c565c"
       d="m 281.701,166.391 0,22.023 -11.637,0 0,-62.559 20.375,0 c 4.183,0 7.803,0.492 10.859,1.471 3.057,0.98 5.581,2.352 7.57,4.111 1.992,1.76 3.461,3.867 4.414,6.314 0.952,2.453 1.427,5.137 1.427,8.047 0,3.031 -0.505,5.807 -1.514,8.33 -1.011,2.525 -2.524,4.693 -4.542,6.51 -2.02,1.818 -4.543,3.232 -7.571,4.24 -3.028,1.01 -6.575,1.512 -10.644,1.512 l -8.737,0 z m 0,-9.084 8.738,0 c 2.135,0 3.996,-0.266 5.582,-0.797 1.586,-0.535 2.897,-1.299 3.937,-2.295 1.039,-0.994 1.817,-2.207 2.335,-3.635 0.521,-1.426 0.78,-3.02 0.78,-4.781 0,-1.672 -0.26,-3.188 -0.78,-4.541 -0.518,-1.355 -1.296,-2.51 -2.335,-3.461 -1.039,-0.953 -2.351,-1.68 -3.937,-2.186 -1.586,-0.502 -3.447,-0.758 -5.582,-0.758 l -8.738,0 0,22.454 z"
       id="path3439"
       inkscape:connector-curvature="0" /><path
       style="fill:#4c565c"
       d="m 336.125,131.092 c 0,0.924 -0.187,1.789 -0.562,2.596 -0.374,0.809 -0.872,1.512 -1.491,2.119 -0.621,0.607 -1.349,1.088 -2.185,1.449 -0.838,0.361 -1.73,0.541 -2.684,0.541 -0.922,0 -1.795,-0.18 -2.616,-0.541 -0.822,-0.361 -1.536,-0.842 -2.142,-1.449 -0.606,-0.607 -1.09,-1.311 -1.449,-2.119 -0.362,-0.807 -0.541,-1.672 -0.541,-2.596 0,-0.953 0.179,-1.846 0.541,-2.684 0.359,-0.838 0.844,-1.557 1.449,-2.164 0.605,-0.604 1.319,-1.088 2.142,-1.449 0.821,-0.357 1.694,-0.539 2.616,-0.539 0.953,0 1.846,0.182 2.684,0.539 0.836,0.361 1.563,0.846 2.185,1.449 0.619,0.607 1.117,1.326 1.491,2.164 0.375,0.838 0.562,1.731 0.562,2.684 z m -1.6,12.935 0,44.387 -10.685,0 0,-44.387 10.685,0 z"
       id="path3441"
       inkscape:connector-curvature="0" /><path
       style="fill:#4c565c"
       d="m 346.594,188.414 0,-44.387 6.534,0 c 1.384,0 2.293,0.646 2.726,1.945 l 0.734,3.504 c 0.895,-0.92 1.84,-1.76 2.834,-2.508 0.995,-0.752 2.049,-1.398 3.158,-1.949 1.111,-0.547 2.299,-0.965 3.568,-1.254 1.27,-0.285 2.653,-0.43 4.154,-0.43 2.422,0 4.57,0.408 6.445,1.23 1.875,0.822 3.439,1.979 4.695,3.461 1.254,1.488 2.205,3.26 2.854,5.322 0.649,2.062 0.975,4.332 0.975,6.814 l 0,28.25 -10.686,0 0,-28.25 c 0,-2.713 -0.627,-4.809 -1.883,-6.295 -1.254,-1.484 -3.136,-2.229 -5.646,-2.229 -1.845,0 -3.575,0.418 -5.191,1.254 -1.616,0.838 -3.144,1.977 -4.586,3.42 l 0,32.1 -10.685,0 z"
       id="path3443"
       inkscape:connector-curvature="0" /></g><g
     id="icon_8_"
     transform="translate(-33.642,-106.117)"><path
       style="fill:#cfdadc"
       d="m 136.851,157.721 c 0,28.518 -23.091,51.605 -51.605,51.605 l 0,0 c -28.524,0 -51.604,-23.088 -51.604,-51.605 l 0,0 c 0,-28.516 23.08,-51.604 51.604,-51.604 l 0,0 c 28.514,0 51.605,23.088 51.605,51.604 l 0,0 z"
       id="path3446"
       inkscape:connector-curvature="0" /><path
       style="fill:#ffffff"
       d="m 128.25,157.721 c 0,23.764 -19.24,43.006 -43.005,43.006 l 0,0 c -23.77,0 -43.004,-19.242 -43.004,-43.006 l 0,0 c 0,-23.762 19.234,-43.004 43.004,-43.004 l 0,0 c 23.765,0 43.005,19.242 43.005,43.004 l 0,0 z"
       id="path3448"
       inkscape:connector-curvature="0" /><path
       style="fill:#ffffff"
       d="m 107.188,157.721 c 0,12.125 -9.821,21.943 -21.942,21.943 l 0,0 c -12.128,0 -21.942,-9.818 -21.942,-21.943 l 0,0 c 0,-12.125 9.814,-21.939 21.942,-21.939 l 0,0 c 12.12,-0.001 21.942,9.814 21.942,21.939 l 0,0 z"
       id="path3450"
       inkscape:connector-curvature="0" /><g
       id="g3452"><path
         style="fill:#d7dcd4"
         d="m 99.871,157.721 c 0,8.08 -6.546,14.629 -14.626,14.629 l 0,0 c -8.085,0 -14.629,-6.549 -14.629,-14.629 l 0,0 c 0,-8.08 6.544,-14.627 14.629,-14.627 l 0,0 c 8.08,0 14.626,6.547 14.626,14.627 l 0,0 z"
         id="path3454"
         inkscape:connector-curvature="0" /></g><path
       style="fill:#ffffff"
       d="m 92.559,157.719 c 0,4.029 -3.272,7.316 -7.313,7.316 l 0,0 c -4.041,0 -7.313,-3.287 -7.313,-7.316 l 0,0 c 0,-4.025 3.272,-7.311 7.313,-7.311 l 0,0 c 4.04,0 7.313,3.285 7.313,7.311 l 0,0 z"
       id="path3456"
       inkscape:connector-curvature="0" /><g
       id="g3458"><path
         style="fill:#5692ce"
         d="m 107.122,187.611 c 0,1.41 -1.142,2.553 -2.551,2.553 l -38.649,0 c -1.41,0 -2.551,-1.143 -2.551,-2.553 l 0,-59.779 c 0,-1.41 1.141,-2.551 2.551,-2.551 l 38.649,0 c 1.409,0 2.551,1.141 2.551,2.551 l 0,59.779 z"
         id="path3460"
         inkscape:connector-curvature="0" /></g><g
       id="g3462"><path
         style="fill:#ffffff"
         d="m 78.806,157.695 c 0,0.436 -0.352,0.787 -0.787,0.787 l -6.774,0 c -0.437,0 -0.787,-0.352 -0.787,-0.787 l 0,-6.775 c 0,-0.436 0.351,-0.785 0.787,-0.785 l 6.774,0 c 0.436,0 0.787,0.35 0.787,0.785 l 0,6.775 z"
         id="path3464"
         inkscape:connector-curvature="0" /><path
         style="fill:#ffffff"
         d="m 89.422,157.695 c 0,0.436 -0.354,0.787 -0.789,0.787 l -6.775,0 c -0.435,0 -0.787,-0.352 -0.787,-0.787 l 0,-6.775 c 0,-0.436 0.353,-0.785 0.787,-0.785 l 6.775,0 c 0.436,0 0.789,0.35 0.789,0.785 l 0,6.775 z"
         id="path3466"
         inkscape:connector-curvature="0" /><path
         style="fill:#ffffff"
         d="m 100.034,157.695 c 0,0.436 -0.351,0.787 -0.787,0.787 l -6.774,0 c -0.435,0 -0.787,-0.352 -0.787,-0.787 l 0,-6.775 c 0,-0.436 0.353,-0.785 0.787,-0.785 l 6.774,0 c 0.437,0 0.787,0.35 0.787,0.785 l 0,6.775 z"
         id="path3468"
         inkscape:connector-curvature="0" /><path
         style="fill:#ffffff"
         d="m 100.034,143.254 c 0,0.434 -0.351,0.787 -0.787,0.787 l -28.003,0 c -0.437,0 -0.787,-0.354 -0.787,-0.787 l 0,-9.145 c 0,-0.436 0.351,-0.787 0.787,-0.787 l 28.003,0 c 0.437,0 0.787,0.352 0.787,0.787 l 0,9.145 z"
         id="path3470"
         inkscape:connector-curvature="0" /><path
         style="fill:#ffffff"
         d="m 78.806,168.311 c 0,0.436 -0.352,0.787 -0.787,0.787 l -6.774,0 c -0.437,0 -0.787,-0.352 -0.787,-0.787 l 0,-6.773 c 0,-0.438 0.351,-0.789 0.787,-0.789 l 6.774,0 c 0.436,0 0.787,0.352 0.787,0.789 l 0,6.773 z"
         id="path3472"
         inkscape:connector-curvature="0" /><path
         style="fill:#ffffff"
         d="m 89.422,168.311 c 0,0.436 -0.354,0.787 -0.789,0.787 l -6.775,0 c -0.435,0 -0.787,-0.352 -0.787,-0.787 l 0,-6.773 c 0,-0.438 0.353,-0.789 0.787,-0.789 l 6.775,0 c 0.436,0 0.789,0.352 0.789,0.789 l 0,6.773 z"
         id="path3474"
         inkscape:connector-curvature="0" /><path
         style="fill:#ffffff"
         d="m 100.034,168.311 c 0,0.436 -0.351,0.787 -0.787,0.787 l -6.774,0 c -0.435,0 -0.787,-0.352 -0.787,-0.787 l 0,-6.773 c 0,-0.438 0.353,-0.789 0.787,-0.789 l 6.774,0 c 0.437,0 0.787,0.352 0.787,0.789 l 0,6.773 z"
         id="path3476"
         inkscape:connector-curvature="0" /><path
         style="fill:#ffffff"
         d="m 78.806,178.926 c 0,0.436 -0.352,0.787 -0.787,0.787 l -6.774,0 c -0.437,0 -0.787,-0.352 -0.787,-0.787 l 0,-6.775 c 0,-0.436 0.351,-0.787 0.787,-0.787 l 6.774,0 c 0.436,0 0.787,0.352 0.787,0.787 l 0,6.775 z"
         id="path3478"
         inkscape:connector-curvature="0" /><path
         style="fill:#ffffff"
         d="m 89.422,178.926 c 0,0.436 -0.354,0.787 -0.789,0.787 l -6.775,0 c -0.435,0 -0.787,-0.352 -0.787,-0.787 l 0,-6.775 c 0,-0.436 0.353,-0.787 0.787,-0.787 l 6.775,0 c 0.436,0 0.789,0.352 0.789,0.787 l 0,6.775 z"
         id="path3480"
         inkscape:connector-curvature="0" /><path
         style="fill:#ffffff"
         d="m 100.034,178.926 c 0,0.436 -0.351,0.787 -0.787,0.787 l -6.774,0 c -0.435,0 -0.787,-0.352 -0.787,-0.787 l 0,-6.775 c 0,-0.436 0.353,-0.787 0.787,-0.787 l 6.774,0 c 0.437,0 0.787,0.352 0.787,0.787 l 0,6.775 z"
         id="path3482"
         inkscape:connector-curvature="0" /></g></g></svg>