<?xml version="1.0" encoding="UTF-8" standalone="no"?>
<!-- Generator: Adobe Illustrator 15.0.0, SVG Export Plug-In . SVG Version: 6.00 Build 0)  -->

<svg
   xmlns:dc="http://purl.org/dc/elements/1.1/"
   xmlns:cc="http://creativecommons.org/ns#"
   xmlns:rdf="http://www.w3.org/1999/02/22-rdf-syntax-ns#"
   xmlns:svg="http://www.w3.org/2000/svg"
   xmlns="http://www.w3.org/2000/svg"
   xmlns:sodipodi="http://sodipodi.sourceforge.net/DTD/sodipodi-0.dtd"
   xmlns:inkscape="http://www.inkscape.org/namespaces/inkscape"
   version="1.1"
   id="MIRACL-2"
   x="0px"
   y="0px"
   width="424.608"
   height="56.693001"
   viewBox="0 0 424.60799 56.693001"
   xml:space="preserve"
   inkscape:version="0.91 r13725"
   sodipodi:docname="MIRACL_MIRACL-2 - inkscape2.svg"><metadata
     id="metadata3373"><rdf:RDF><cc:Work
         rdf:about=""><dc:format>image/svg+xml</dc:format><dc:type
           rdf:resource="http://purl.org/dc/dcmitype/StillImage" /><dc:title></dc:title></cc:Work></rdf:RDF></metadata><defs
     id="defs3371" /><sodipodi:namedview
     pagecolor="#ffffff"
     bordercolor="#666666"
     borderopacity="1"
     objecttolerance="10"
     gridtolerance="10"
     guidetolerance="10"
     inkscape:pageopacity="0"
     inkscape:pageshadow="2"
     inkscape:window-width="1366"
     inkscape:window-height="745"
     id="namedview3369"
     showgrid="false"
     inkscape:zoom="2.0133806"
     inkscape:cx="213.53601"
     inkscape:cy="46.177084"
     inkscape:window-x="1912"
     inkscape:window-y="-8"
     inkscape:window-maximized="1"
     inkscape:current-layer="MIRACL-2"
     fit-margin-top="0"
     fit-margin-left="0"
     fit-margin-right="0"
     fit-margin-bottom="0" /><g
     id="g3337"
     transform="translate(-54.064,-112.66)"><path
       style="fill:#4c565c"
       d="m 226.115,168.928 -0.08,-41.842 -17.682,36 -6.16,0 -17.68,-36 0,41.842 -8.881,0 0,-56.002 11.201,0 18.48,37.201 18.4,-37.201 11.121,0 0,56.002 -8.719,0 z"
       id="path3339"
       inkscape:connector-curvature="0" /><path
       style="fill:#4c565c"
       d="m 249.633,168.928 0,-56.002 9.439,0 0,56.002 -9.439,0 z"
       id="path3341"
       inkscape:connector-curvature="0" /><path
       style="fill:#4c565c"
       d="m 299.072,151.967 c -0.799,0.08 -1.68,0.08 -2.561,0.08 l -13.279,0 0,16.881 -9.439,0 0,-56.002 22.719,0 c 14.32,0 22.561,6.961 22.561,19.121 0,8.959 -4.16,15.279 -11.6,18.16 l 12.561,18.721 -10.721,0 -10.241,-16.961 z m -2.56,-8.401 c 8.641,0 13.602,-3.68 13.602,-11.279 0,-7.361 -4.961,-10.881 -13.602,-10.881 l -13.279,0 0,22.16 13.279,0 z"
       id="path3343"
       inkscape:connector-curvature="0" /><path
       style="fill:#4c565c"
       d="m 339.551,156.287 -5.359,12.641 -9.84,0 24.721,-56.002 9.68,0 24.48,56.002 -10.08,0 -5.359,-12.641 -28.243,0 z m 14.082,-33.281 -10.561,24.881 21.121,0 -10.56,-24.881 z"
       id="path3345"
       inkscape:connector-curvature="0" /><path
       style="fill:#4c565c"
       d="m 435.312,121.326 -5.52,6.881 c -4.08,-4.4 -9.92,-7.121 -15.6,-7.121 -11.201,0 -20.002,8.641 -20.002,19.68 0,11.041 8.801,19.762 20.002,19.762 5.6,0 11.359,-2.561 15.6,-6.641 l 5.6,6.24 c -5.68,5.6 -13.76,9.199 -21.68,9.199 -16.4,0 -29.121,-12.4 -29.121,-28.48 0,-15.92 12.881,-28.16 29.441,-28.16 7.921,0 15.841,3.279 21.28,8.64 z"
       id="path3347"
       inkscape:connector-curvature="0" /><path
       style="fill:#4c565c"
       d="m 478.672,160.367 0,8.561 -33.682,0 0,-56.002 9.441,0 0,47.441 24.241,0 z"
       id="path3349"
       inkscape:connector-curvature="0" /></g><g
     id="g3351"
     transform="translate(-54.064,-112.66)"><polygon
       style="fill:#4c565c"
       points="94.885,113.66 74.479,168.354 54.064,168.354 74.479,113.66 "
       id="polygon3353" /><polygon
       style="fill:#4c565c"
       points="135.703,113.66 115.297,168.354 94.885,168.354 115.297,113.66 "
       id="polygon3355" /><g
       id="g3357"><polygon
         style="fill:#5692ce"
         points="115.297,113.66 135.703,168.354 156.117,168.354 135.703,113.66 "
         id="polygon3359" /><path
         style="fill:#ffffff"
         d="m 135.703,113.66 20.414,54.693 -20.414,0 -20.406,-54.693 20.406,0 m 0.695,-1 -0.695,0 -20.406,0 -1.439,0 0.504,1.35 20.406,54.693 0.242,0.65 0.693,0 20.414,0 1.441,0 -0.504,-1.35 -20.414,-54.693 -0.242,-0.65 0,0 z"
         id="path3361"
         inkscape:connector-curvature="0" /></g><g
       id="g3363"><polygon
         style="fill:#5692ce"
         points="74.479,113.66 94.885,168.354 115.297,168.354 94.885,113.66 "
         id="polygon3365" /><path
         style="fill:#ffffff"
         d="m 94.885,113.66 20.412,54.693 -20.412,0 -20.406,-54.693 20.406,0 m 0.695,-1 -0.695,0 -20.406,0 -1.439,0 0.504,1.35 20.406,54.693 0.242,0.65 0.693,0 20.412,0 1.441,0 -0.504,-1.35 -20.412,-54.693 -0.242,-0.65 0,0 z"
         id="path3367"
         inkscape:connector-curvature="0" /></g></g></svg>